<svg width="84" height="55" viewBox="0 0 84 55" fill="none" xmlns="http://www.w3.org/2000/svg">
<path d="M38.9766 28.1445C38.9766 36.2773 37.2539 42.6875 33.8086 47.375C30.3398 52.0391 25.582 54.3711 19.5352 54.3711C13.4883 54.3711 8.74219 51.9922 5.29688 47.2344C4.17188 45.7344 3.19922 43.9766 2.37891 41.9609C1.55859 39.9219 0.960938 37.7305 0.585938 35.3867C0.210938 33.043 0.0234375 30.4648 0.0234375 27.6523C0.0234375 23.4805 0.457031 19.7656 1.32422 16.5078C2.21484 13.25 3.53906 10.4375 5.29688 8.07031C8.76562 3.35938 13.5117 1.00391 19.5352 1.00391C25.6523 1.00391 30.4336 3.35938 33.8789 8.07031C37.2773 12.9219 38.9766 19.6133 38.9766 28.1445ZM12.9961 27.6523C12.9961 33.3711 13.5234 37.4727 14.5781 39.957C15.6328 42.5586 17.2852 43.8594 19.5352 43.8594C21.7383 43.8594 23.3672 42.5586 24.4219 39.957C25.4766 37.4727 26.0039 33.3711 26.0039 27.6523C26.0039 22.0039 25.4766 17.9258 24.4219 15.418C23.3672 12.7695 21.7383 11.4453 19.5352 11.4453C17.2148 11.4453 15.5625 12.7227 14.5781 15.2773C13.5234 17.7852 12.9961 21.9102 12.9961 27.6523ZM82.6758 53H43.3711L66.4688 25.6484C67.9688 23.8438 69 22.332 69.5625 21.1133C70.2422 19.707 70.582 18.4531 70.582 17.3516C70.582 15.5469 70.0312 14.0586 68.9297 12.8867C67.7109 11.7852 66.1992 11.2344 64.3945 11.2344C62.1914 11.2344 60.5156 11.9375 59.3672 13.3438C58.1484 14.7734 57.5391 16.8125 57.5391 19.4609V20.0938H45.1641V19.7422C45.1641 13.9531 46.875 9.37109 50.2969 5.99609C53.6484 2.62109 58.3008 0.933594 64.2539 0.933594C70.0195 0.933594 74.6016 2.42187 78 5.39844C81.4453 8.35156 83.168 12.3125 83.168 17.2812C83.168 19.6484 82.6172 22.0039 81.5156 24.3477C80.4141 26.668 78.6445 29.1641 76.207 31.8359L66.9258 42.0664H82.6758V53Z" fill="#64629D"/>
</svg>
