<svg width="73" height="54" viewBox="0 0 73 54" fill="none" xmlns="http://www.w3.org/2000/svg">
<path d="M38.9766 27.1445C38.9766 35.2773 37.2539 41.6875 33.8086 46.375C30.3398 51.0391 25.582 53.3711 19.5352 53.3711C13.4883 53.3711 8.74219 50.9922 5.29688 46.2344C4.17188 44.7344 3.19922 42.9766 2.37891 40.9609C1.55859 38.9219 0.960938 36.7305 0.585938 34.3867C0.210938 32.043 0.0234375 29.4648 0.0234375 26.6523C0.0234375 22.4805 0.457031 18.7656 1.32422 15.5078C2.21484 12.25 3.53906 9.4375 5.29688 7.07031C8.76562 2.35938 13.5117 0.00390625 19.5352 0.00390625C25.6523 0.00390625 30.4336 2.35938 33.8789 7.07031C37.2773 11.9219 38.9766 18.6133 38.9766 27.1445ZM12.9961 26.6523C12.9961 32.3711 13.5234 36.4727 14.5781 38.957C15.6328 41.5586 17.2852 42.8594 19.5352 42.8594C21.7383 42.8594 23.3672 41.5586 24.4219 38.957C25.4766 36.4727 26.0039 32.3711 26.0039 26.6523C26.0039 21.0039 25.4766 16.9258 24.4219 14.418C23.3672 11.7695 21.7383 10.4453 19.5352 10.4453C17.2148 10.4453 15.5625 11.7227 14.5781 14.2773C13.5234 16.7852 12.9961 20.9102 12.9961 26.6523ZM59.2969 52V12.6953H48.2578L54.3047 1.02344H72.0938V52H59.2969Z" fill="#64629D"/>
</svg>
