<svg width="84" height="54" viewBox="0 0 84 54" fill="none" xmlns="http://www.w3.org/2000/svg">
<path d="M38.9766 27.1445C38.9766 35.2773 37.2539 41.6875 33.8086 46.375C30.3398 51.0391 25.582 53.3711 19.5352 53.3711C13.4883 53.3711 8.74219 50.9922 5.29688 46.2344C4.17188 44.7344 3.19922 42.9766 2.37891 40.9609C1.55859 38.9219 0.960938 36.7305 0.585938 34.3867C0.210938 32.043 0.0234375 29.4648 0.0234375 26.6523C0.0234375 22.4805 0.457031 18.7656 1.32422 15.5078C2.21484 12.25 3.53906 9.4375 5.29688 7.07031C8.76562 2.35938 13.5117 0.00390625 19.5352 0.00390625C25.6523 0.00390625 30.4336 2.35938 33.8789 7.07031C37.2773 11.9219 38.9766 18.6133 38.9766 27.1445ZM12.9961 26.6523C12.9961 32.3711 13.5234 36.4727 14.5781 38.957C15.6328 41.5586 17.2852 42.8594 19.5352 42.8594C21.7383 42.8594 23.3672 41.5586 24.4219 38.957C25.4766 36.4727 26.0039 32.3711 26.0039 26.6523C26.0039 21.0039 25.4766 16.9258 24.4219 14.418C23.3672 11.7695 21.7383 10.4453 19.5352 10.4453C17.2148 10.4453 15.5625 11.7227 14.5781 14.2773C13.5234 16.7852 12.9961 20.9102 12.9961 26.6523ZM44.9531 34.9492H57.9961V35.793C57.9961 38.0898 58.5234 39.8008 59.5781 40.9258C60.6562 42.0742 62.2148 42.6484 64.2539 42.6484C66.3398 42.6484 67.9922 42.0977 69.2109 40.9961C70.3594 39.918 70.9336 38.3008 70.9336 36.1445C70.9336 33.7539 70.3125 32.0078 69.0703 30.9062C67.8281 29.8047 65.9062 29.2539 63.3047 29.2539H62.3906C62.2266 29.3008 62.0039 29.3242 61.7227 29.3242V21.0273H62.4609C64.8281 21.0273 66.6445 20.5 67.9102 19.4453C69.1758 18.4375 69.8086 16.9492 69.8086 14.9805C69.8086 13.3633 69.2695 12.0977 68.1914 11.1836C67.1602 10.1758 65.8008 9.67188 64.1133 9.67188C62.332 9.67188 60.9609 10.1523 60 11.1133C59.0156 12.0039 58.4883 13.3633 58.418 15.1914H45.9727C46.043 10.4336 47.7188 6.69531 51 3.97656C54.2109 1.32813 58.793 0.00390625 64.7461 0.00390625C69.9961 0.00390625 74.1211 1.1875 77.1211 3.55469C80.1445 5.89844 81.6562 9.13281 81.6562 13.2578C81.6562 15.8359 80.9648 18.0508 79.582 19.9023C78.1523 21.7773 76.1367 23.0898 73.5352 23.8398C76.7461 24.4258 79.2422 25.832 81.0234 28.0586C82.8047 30.2617 83.6953 33.0859 83.6953 36.5312C83.6953 41.5469 81.9141 45.6016 78.3516 48.6953C74.8125 51.8125 70.1836 53.3711 64.4648 53.3711C58.4648 53.3711 53.707 51.7656 50.1914 48.5547C46.6992 45.3438 44.9531 40.9727 44.9531 35.4414V34.9492Z" fill="#64629D"/>
</svg>
