<svg width="19" height="6" viewBox="0 0 19 6" fill="none" xmlns="http://www.w3.org/2000/svg">
<path d="M0.968539 5H1.76654V3.146C1.76654 2.726 1.69454 2.108 1.65254 1.688H1.67654L2.03054 2.732L2.72054 4.598H3.23054L3.91454 2.732L4.27454 1.688H4.30454C4.25654 2.108 4.19054 2.726 4.19054 3.146V5H5.00054V0.554H4.01654L3.27854 2.636C3.18254 2.912 3.10454 3.206 3.00854 3.488H2.97854C2.88854 3.206 2.80454 2.912 2.70854 2.636L1.95254 0.554H0.968539V5ZM6.20963 5H8.99963V4.256H7.09763V3.068H8.65763V2.324H7.09763V1.298H8.93363V0.554H6.20963V5ZM10.021 5H10.861V3.218C10.861 2.708 10.795 2.15 10.753 1.67H10.783L11.233 2.624L12.517 5H13.417V0.554H12.577V2.33C12.577 2.834 12.649 3.422 12.691 3.884H12.661L12.217 2.924L10.927 0.554H10.021V5ZM16.3392 5.084C17.4252 5.084 18.0552 4.478 18.0552 3.002V0.554H17.2032V3.08C17.2032 4.004 16.8672 4.316 16.3392 4.316C15.8232 4.316 15.4992 4.004 15.4992 3.08V0.554H14.6112V3.002C14.6112 4.478 15.2592 5.084 16.3392 5.084Z" fill="#64629D"/>
</svg>
